<?xml version="1.0" encoding="UTF-8"?>
<svg xmlns="http://www.w3.org/2000/svg" width="1200" height="760" viewBox="0 0 1200 760">
<rect width="100%" height="100%" fill="#FFFFFF"/>
<style>text{font-family:Arial,DejaVu Sans,Liberation Sans,sans-serif;} .small{font-size:13px;} .axis{stroke:#272727;stroke-width:1;} .grid{stroke:#E6E6E6;stroke-width:1;} .label{font-size:15px;fill:#272727;} .panel{font-size:19px;font-weight:bold;fill:#272727;} .title{font-size:20px;font-weight:bold;fill:#272727;}</style>
<text x="55.00" y="50.00" font-size="23" fill="#272727" font-weight="bold" text-anchor="start">Fig. 2 | RQL reduces weighted milestone delay across J10-J60</text>
<text x="55.00" y="95.00" font-size="20" fill="#272727" font-weight="bold" text-anchor="start">a</text>
<line x1="95.00" y1="385.00" x2="565.00" y2="385.00" stroke="#272727" stroke-width="1.1"/>
<line x1="95.00" y1="125.00" x2="95.00" y2="385.00" stroke="#272727" stroke-width="1.1"/>
<line x1="95.00" y1="379.57" x2="565.00" y2="379.57" stroke="#E8E8E8" stroke-width="0.8"/>
<text x="87.00" y="383.57" font-size="11" fill="#272727" font-weight="normal" text-anchor="end">1</text>
<line x1="95.00" y1="245.80" x2="565.00" y2="245.80" stroke="#E8E8E8" stroke-width="0.8"/>
<text x="87.00" y="249.80" font-size="11" fill="#272727" font-weight="normal" text-anchor="end">10</text>
<rect x="111.45" y="364.28" width="14.89" height="20.72" rx="0" fill="#0F4D92" stroke="none" stroke-width="1" opacity="1"/>
<rect x="128.37" y="357.70" width="14.89" height="27.30" rx="0" fill="#42949E" stroke="none" stroke-width="1" opacity="1"/>
<rect x="145.29" y="331.59" width="14.89" height="53.41" rx="0" fill="#8BCF8B" stroke="none" stroke-width="1" opacity="1"/>
<rect x="162.21" y="333.71" width="14.89" height="51.29" rx="0" fill="#767676" stroke="none" stroke-width="1" opacity="1"/>
<rect x="179.13" y="339.53" width="14.89" height="45.47" rx="0" fill="#B64342" stroke="none" stroke-width="1" opacity="1"/>
<text x="153.75" y="407.00" font-size="12" fill="#272727" font-weight="normal" text-anchor="middle">J10</text>
<rect x="228.95" y="331.76" width="14.89" height="53.24" rx="0" fill="#0F4D92" stroke="none" stroke-width="1" opacity="1"/>
<rect x="245.87" y="321.39" width="14.89" height="63.61" rx="0" fill="#42949E" stroke="none" stroke-width="1" opacity="1"/>
<rect x="262.79" y="309.65" width="14.89" height="75.35" rx="0" fill="#8BCF8B" stroke="none" stroke-width="1" opacity="1"/>
<rect x="279.71" y="301.51" width="14.89" height="83.49" rx="0" fill="#767676" stroke="none" stroke-width="1" opacity="1"/>
<rect x="296.63" y="284.43" width="14.89" height="100.57" rx="0" fill="#B64342" stroke="none" stroke-width="1" opacity="1"/>
<text x="271.25" y="407.00" font-size="12" fill="#272727" font-weight="normal" text-anchor="middle">J20</text>
<rect x="346.45" y="326.97" width="14.89" height="58.03" rx="0" fill="#0F4D92" stroke="none" stroke-width="1" opacity="1"/>
<rect x="363.37" y="322.36" width="14.89" height="62.64" rx="0" fill="#42949E" stroke="none" stroke-width="1" opacity="1"/>
<rect x="380.29" y="305.36" width="14.89" height="79.64" rx="0" fill="#8BCF8B" stroke="none" stroke-width="1" opacity="1"/>
<rect x="397.21" y="301.51" width="14.89" height="83.49" rx="0" fill="#767676" stroke="none" stroke-width="1" opacity="1"/>
<rect x="414.13" y="229.55" width="14.89" height="155.45" rx="0" fill="#B64342" stroke="none" stroke-width="1" opacity="1"/>
<text x="388.75" y="407.00" font-size="12" fill="#272727" font-weight="normal" text-anchor="middle">J30</text>
<rect x="463.95" y="250.27" width="14.89" height="134.73" rx="0" fill="#0F4D92" stroke="none" stroke-width="1" opacity="1"/>
<rect x="480.87" y="243.77" width="14.89" height="141.23" rx="0" fill="#42949E" stroke="none" stroke-width="1" opacity="1"/>
<rect x="497.79" y="236.26" width="14.89" height="148.74" rx="0" fill="#8BCF8B" stroke="none" stroke-width="1" opacity="1"/>
<rect x="514.71" y="222.15" width="14.89" height="162.85" rx="0" fill="#767676" stroke="none" stroke-width="1" opacity="1"/>
<rect x="531.63" y="145.98" width="14.89" height="239.02" rx="0" fill="#B64342" stroke="none" stroke-width="1" opacity="1"/>
<text x="506.25" y="407.00" font-size="12" fill="#272727" font-weight="normal" text-anchor="middle">J60</text>
<text x="40.00" y="255.00" font-size="13" fill="#272727" font-weight="normal" text-anchor="middle" transform="rotate(-90 40.00 255.00)">AOTV (log scale)</text>
<text x="640.00" y="95.00" font-size="20" fill="#272727" font-weight="bold" text-anchor="start">b</text>
<line x1="680.00" y1="385.00" x2="1125.00" y2="385.00" stroke="#272727" stroke-width="1.1"/>
<line x1="680.00" y1="125.00" x2="680.00" y2="385.00" stroke="#272727" stroke-width="1.1"/>
<line x1="680.00" y1="385.00" x2="1125.00" y2="385.00" stroke="#E8E8E8" stroke-width="0.8"/>
<text x="672.00" y="389.00" font-size="11" fill="#272727" font-weight="normal" text-anchor="end">0.0</text>
<line x1="680.00" y1="333.00" x2="1125.00" y2="333.00" stroke="#E8E8E8" stroke-width="0.8"/>
<text x="672.00" y="337.00" font-size="11" fill="#272727" font-weight="normal" text-anchor="end">152</text>
<line x1="680.00" y1="281.00" x2="1125.00" y2="281.00" stroke="#E8E8E8" stroke-width="0.8"/>
<text x="672.00" y="285.00" font-size="11" fill="#272727" font-weight="normal" text-anchor="end">304</text>
<line x1="680.00" y1="229.00" x2="1125.00" y2="229.00" stroke="#E8E8E8" stroke-width="0.8"/>
<text x="672.00" y="233.00" font-size="11" fill="#272727" font-weight="normal" text-anchor="end">456</text>
<line x1="680.00" y1="177.00" x2="1125.00" y2="177.00" stroke="#E8E8E8" stroke-width="0.8"/>
<text x="672.00" y="181.00" font-size="11" fill="#272727" font-weight="normal" text-anchor="end">608</text>
<line x1="680.00" y1="125.00" x2="1125.00" y2="125.00" stroke="#E8E8E8" stroke-width="0.8"/>
<text x="672.00" y="129.00" font-size="11" fill="#272727" font-weight="normal" text-anchor="end">760</text>
<text x="625.00" y="255.00" font-size="13" fill="#272727" font-weight="normal" text-anchor="middle" transform="rotate(-90 625.00 255.00)">ARPD (%)</text>
<rect x="695.58" y="382.21" width="14.10" height="2.79" rx="0" fill="#0F4D92" stroke="none" stroke-width="1" opacity="1"/>
<rect x="711.60" y="377.10" width="14.10" height="7.90" rx="0" fill="#42949E" stroke="none" stroke-width="1" opacity="1"/>
<rect x="727.62" y="355.03" width="14.10" height="29.97" rx="0" fill="#8BCF8B" stroke="none" stroke-width="1" opacity="1"/>
<rect x="743.63" y="359.00" width="14.10" height="26.00" rx="0" fill="#767676" stroke="none" stroke-width="1" opacity="1"/>
<rect x="759.66" y="365.63" width="14.10" height="19.37" rx="0" fill="#B64342" stroke="none" stroke-width="1" opacity="1"/>
<text x="735.62" y="407.00" font-size="12" fill="#272727" font-weight="normal" text-anchor="middle">J10</text>
<rect x="806.83" y="376.30" width="14.10" height="8.70" rx="0" fill="#0F4D92" stroke="none" stroke-width="1" opacity="1"/>
<rect x="822.85" y="367.40" width="14.10" height="17.60" rx="0" fill="#42949E" stroke="none" stroke-width="1" opacity="1"/>
<rect x="838.87" y="354.13" width="14.10" height="30.87" rx="0" fill="#8BCF8B" stroke="none" stroke-width="1" opacity="1"/>
<rect x="854.88" y="343.78" width="14.10" height="41.22" rx="0" fill="#767676" stroke="none" stroke-width="1" opacity="1"/>
<rect x="870.91" y="315.77" width="14.10" height="69.23" rx="0" fill="#B64342" stroke="none" stroke-width="1" opacity="1"/>
<text x="846.88" y="407.00" font-size="12" fill="#272727" font-weight="normal" text-anchor="middle">J20</text>
<rect x="918.08" y="376.34" width="14.10" height="8.66" rx="0" fill="#0F4D92" stroke="none" stroke-width="1" opacity="1"/>
<rect x="934.10" y="371.82" width="14.10" height="13.18" rx="0" fill="#42949E" stroke="none" stroke-width="1" opacity="1"/>
<rect x="950.12" y="358.34" width="14.10" height="26.66" rx="0" fill="#8BCF8B" stroke="none" stroke-width="1" opacity="1"/>
<rect x="966.13" y="352.87" width="14.10" height="32.13" rx="0" fill="#767676" stroke="none" stroke-width="1" opacity="1"/>
<rect x="982.16" y="152.68" width="14.10" height="232.32" rx="0" fill="#B64342" stroke="none" stroke-width="1" opacity="1"/>
<text x="958.12" y="407.00" font-size="12" fill="#272727" font-weight="normal" text-anchor="middle">J30</text>
<rect x="1029.33" y="377.22" width="14.10" height="7.78" rx="0" fill="#0F4D92" stroke="none" stroke-width="1" opacity="1"/>
<rect x="1045.35" y="371.24" width="14.10" height="13.76" rx="0" fill="#42949E" stroke="none" stroke-width="1" opacity="1"/>
<rect x="1061.37" y="361.62" width="14.10" height="23.38" rx="0" fill="#8BCF8B" stroke="none" stroke-width="1" opacity="1"/>
<rect x="1077.38" y="349.12" width="14.10" height="35.88" rx="0" fill="#767676" stroke="none" stroke-width="1" opacity="1"/>
<rect x="1093.40" y="135.80" width="14.10" height="249.20" rx="0" fill="#B64342" stroke="none" stroke-width="1" opacity="1"/>
<text x="1069.38" y="407.00" font-size="12" fill="#272727" font-weight="normal" text-anchor="middle">J60</text>
<text x="625.00" y="255.00" font-size="13" fill="#272727" font-weight="normal" text-anchor="middle" transform="rotate(-90 625.00 255.00)">ARPD (%)</text>
<text x="55.00" y="455.00" font-size="20" fill="#272727" font-weight="bold" text-anchor="start">c</text>
<text x="95.00" y="455.00" font-size="16" fill="#272727" font-weight="bold" text-anchor="start">RQL improvement relative to RH</text>
<line x1="95.00" y1="665.00" x2="565.00" y2="665.00" stroke="#272727" stroke-width="1.1"/>
<line x1="95.00" y1="485.00" x2="95.00" y2="665.00" stroke="#272727" stroke-width="1.1"/>
<line x1="95.00" y1="665.00" x2="565.00" y2="665.00" stroke="#E8E8E8" stroke-width="0.8"/>
<text x="87.00" y="669.00" font-size="11" fill="#272727" font-weight="normal" text-anchor="end">0.0</text>
<line x1="95.00" y1="629.00" x2="565.00" y2="629.00" stroke="#E8E8E8" stroke-width="0.8"/>
<text x="87.00" y="633.00" font-size="11" fill="#272727" font-weight="normal" text-anchor="end">4.0</text>
<line x1="95.00" y1="593.00" x2="565.00" y2="593.00" stroke="#E8E8E8" stroke-width="0.8"/>
<text x="87.00" y="597.00" font-size="11" fill="#272727" font-weight="normal" text-anchor="end">8.0</text>
<line x1="95.00" y1="557.00" x2="565.00" y2="557.00" stroke="#E8E8E8" stroke-width="0.8"/>
<text x="87.00" y="561.00" font-size="11" fill="#272727" font-weight="normal" text-anchor="end">12</text>
<line x1="95.00" y1="521.00" x2="565.00" y2="521.00" stroke="#E8E8E8" stroke-width="0.8"/>
<text x="87.00" y="525.00" font-size="11" fill="#272727" font-weight="normal" text-anchor="end">16</text>
<line x1="95.00" y1="485.00" x2="565.00" y2="485.00" stroke="#E8E8E8" stroke-width="0.8"/>
<text x="87.00" y="489.00" font-size="11" fill="#272727" font-weight="normal" text-anchor="end">20</text>
<text x="40.00" y="575.00" font-size="13" fill="#272727" font-weight="normal" text-anchor="middle" transform="rotate(-90 40.00 575.00)">AOTV reduction (%)</text>
<rect x="124.38" y="568.64" width="64.62" height="96.36" rx="0" fill="#0F4D92" stroke="none" stroke-width="1" opacity="1"/>
<text x="156.69" y="561.64" font-size="12" fill="#272727" font-weight="normal" text-anchor="middle">10.7%</text>
<text x="156.69" y="687.00" font-size="12" fill="#272727" font-weight="normal" text-anchor="middle">J10</text>
<rect x="241.88" y="517.87" width="64.62" height="147.13" rx="0" fill="#0F4D92" stroke="none" stroke-width="1" opacity="1"/>
<text x="274.19" y="510.87" font-size="12" fill="#272727" font-weight="normal" text-anchor="middle">16.3%</text>
<text x="274.19" y="687.00" font-size="12" fill="#272727" font-weight="normal" text-anchor="middle">J20</text>
<rect x="359.38" y="596.42" width="64.62" height="68.58" rx="0" fill="#0F4D92" stroke="none" stroke-width="1" opacity="1"/>
<text x="391.69" y="589.42" font-size="12" fill="#272727" font-weight="normal" text-anchor="middle">7.6%</text>
<text x="391.69" y="687.00" font-size="12" fill="#272727" font-weight="normal" text-anchor="middle">J30</text>
<rect x="476.88" y="569.83" width="64.62" height="95.17" rx="0" fill="#0F4D92" stroke="none" stroke-width="1" opacity="1"/>
<text x="509.19" y="562.83" font-size="12" fill="#272727" font-weight="normal" text-anchor="middle">10.6%</text>
<text x="509.19" y="687.00" font-size="12" fill="#272727" font-weight="normal" text-anchor="middle">J60</text>
<text x="640.00" y="455.00" font-size="20" fill="#272727" font-weight="bold" text-anchor="start">d</text>
<text x="680.00" y="455.00" font-size="16" fill="#272727" font-weight="bold" text-anchor="start">Method legend</text>
<rect x="690.00" y="487.00" width="24.00" height="14.00" rx="0" fill="#0F4D92" stroke="none" stroke-width="1" opacity="1"/>
<text x="726.00" y="500.00" font-size="14" fill="#272727" font-weight="normal" text-anchor="start">RQL</text>
<rect x="690.00" y="517.00" width="24.00" height="14.00" rx="0" fill="#42949E" stroke="none" stroke-width="1" opacity="1"/>
<text x="726.00" y="530.00" font-size="14" fill="#272727" font-weight="normal" text-anchor="start">RH</text>
<rect x="690.00" y="547.00" width="24.00" height="14.00" rx="0" fill="#8BCF8B" stroke="none" stroke-width="1" opacity="1"/>
<text x="726.00" y="560.00" font-size="14" fill="#272727" font-weight="normal" text-anchor="start">MXS+MF</text>
<rect x="690.00" y="577.00" width="24.00" height="14.00" rx="0" fill="#767676" stroke="none" stroke-width="1" opacity="1"/>
<text x="726.00" y="590.00" font-size="14" fill="#272727" font-weight="normal" text-anchor="start">MPV-SLK-EFT</text>
<rect x="690.00" y="607.00" width="24.00" height="14.00" rx="0" fill="#B64342" stroke="none" stroke-width="1" opacity="1"/>
<text x="726.00" y="620.00" font-size="14" fill="#272727" font-weight="normal" text-anchor="start">QL</text>
<text x="680.00" y="690.00" font-size="13" fill="#4D4D4D" font-weight="normal" text-anchor="start">AOTV is the average total weighted delay penalty. ARPD is computed against the best result obtained on each instance.</text>
</svg>