<?xml version="1.0" encoding="UTF-8"?>
<svg xmlns="http://www.w3.org/2000/svg" width="980" height="600" viewBox="0 0 980 600">
<rect width="100%" height="100%" fill="white"/>
<text x="490.0" y="30" text-anchor="middle" font-size="22" font-family="Arial">RQL reward convergence curve</text>
<line x1="90" y1="520" x2="770" y2="520" stroke="#333"/>
<line x1="90" y1="55" x2="90" y2="520" stroke="#333"/>
<line x1="90.0" y1="520" x2="90.0" y2="526" stroke="#333"/>
<text x="90.0" y="546" text-anchor="middle" font-size="13" font-family="Arial">1</text>
<line x1="226.0" y1="520" x2="226.0" y2="526" stroke="#333"/>
<text x="226.0" y="546" text-anchor="middle" font-size="13" font-family="Arial">2</text>
<line x1="362.0" y1="520" x2="362.0" y2="526" stroke="#333"/>
<text x="362.0" y="546" text-anchor="middle" font-size="13" font-family="Arial">3</text>
<line x1="498.0" y1="520" x2="498.0" y2="526" stroke="#333"/>
<text x="498.0" y="546" text-anchor="middle" font-size="13" font-family="Arial">3</text>
<line x1="634.0" y1="520" x2="634.0" y2="526" stroke="#333"/>
<text x="634.0" y="546" text-anchor="middle" font-size="13" font-family="Arial">4</text>
<line x1="770.0" y1="520" x2="770.0" y2="526" stroke="#333"/>
<text x="770.0" y="546" text-anchor="middle" font-size="13" font-family="Arial">5</text>
<line x1="84" y1="520.0" x2="90" y2="520.0" stroke="#333"/>
<line x1="90" y1="520.0" x2="770" y2="520.0" stroke="#e6e6e6"/>
<text x="78" y="524.0" text-anchor="end" font-size="12" font-family="Arial">-6.18</text>
<line x1="84" y1="426.99999999999994" x2="90" y2="426.99999999999994" stroke="#333"/>
<line x1="90" y1="426.99999999999994" x2="770" y2="426.99999999999994" stroke="#e6e6e6"/>
<text x="78" y="430.99999999999994" text-anchor="end" font-size="12" font-family="Arial">-5.95</text>
<line x1="84" y1="333.99999999999983" x2="90" y2="333.99999999999983" stroke="#333"/>
<line x1="90" y1="333.99999999999983" x2="770" y2="333.99999999999983" stroke="#e6e6e6"/>
<text x="78" y="337.99999999999983" text-anchor="end" font-size="12" font-family="Arial">-5.72</text>
<line x1="84" y1="241.00000000000014" x2="90" y2="241.00000000000014" stroke="#333"/>
<line x1="90" y1="241.00000000000014" x2="770" y2="241.00000000000014" stroke="#e6e6e6"/>
<text x="78" y="245.00000000000014" text-anchor="end" font-size="12" font-family="Arial">-5.48</text>
<line x1="84" y1="148.00000000000006" x2="90" y2="148.00000000000006" stroke="#333"/>
<line x1="90" y1="148.00000000000006" x2="770" y2="148.00000000000006" stroke="#e6e6e6"/>
<text x="78" y="152.00000000000006" text-anchor="end" font-size="12" font-family="Arial">-5.25</text>
<line x1="84" y1="55.0" x2="90" y2="55.0" stroke="#333"/>
<line x1="90" y1="55.0" x2="770" y2="55.0" stroke="#e6e6e6"/>
<text x="78" y="59.0" text-anchor="end" font-size="12" font-family="Arial">-5.02</text>
<polyline fill="none" stroke="#1f77b4" stroke-width="2.5" points="90.00,167.24 260.00,347.63 430.00,107.11 600.00,87.07 770.00,487.93"/>
<line x1="805" y1="80" x2="833" y2="80" stroke="#1f77b4" stroke-width="3"/>
<text x="841" y="85" font-size="14" font-family="Arial">J10</text>
<text x="430.0" y="575" text-anchor="middle" font-size="15" font-family="Arial">Training steps</text>
<text x="22" y="287.5" text-anchor="middle" font-size="15" font-family="Arial" transform="rotate(-90 22 287.5)">Average smoothed reward</text>
</svg>